<?xml version="1.0" encoding="UTF-8" standalone="no"?>
<svg
   xmlns:dc="http://purl.org/dc/elements/1.1/"
   xmlns:cc="http://creativecommons.org/ns#"
   xmlns:rdf="http://www.w3.org/1999/02/22-rdf-syntax-ns#"
   xmlns:svg="http://www.w3.org/2000/svg"
   xmlns="http://www.w3.org/2000/svg"
   xmlns:sodipodi="http://sodipodi.sourceforge.net/DTD/sodipodi-0.dtd"
   xmlns:inkscape="http://www.inkscape.org/namespaces/inkscape"
   width="100"
   height="100"
   viewBox="0 0 100 100"
   version="1.1"
   id="svg10"
   sodipodi:docname="graph-paper.svg"
   inkscape:version="0.92.3 (2405546, 2018-03-11)">
  <metadata
     id="metadata16">
    <rdf:RDF>
      <cc:Work
         rdf:about="">
        <dc:format>image/svg+xml</dc:format>
        <dc:type
           rdf:resource="http://purl.org/dc/dcmitype/StillImage" />
        <dc:title></dc:title>
      </cc:Work>
    </rdf:RDF>
  </metadata>
  <defs
     id="defs14">
    <pattern
       patternUnits="userSpaceOnUse"
       width="100"
       height="100.00001"
       patternTransform="translate(-80.084746,16.101695)"
       id="pattern832">
      <g
         id="g830"
         transform="translate(80.084746,-16.101695)">
        <path
           d="m 15.915254,111.1017 h 4 v 1 h -4 v 4 h -1 v -4 h -9 v 4 h -1 v -4 h -9 v 4 h -1 v -4 h -9 v 4 h -1 v -4 h -9 v 4 h -1 v -4 h -9 v 4 h -1 v -4 h -9 v 4 h -1 v -4 h -9 v 4 h -1 v -4 h -9 v 4 h -1 v -4 h -15 v -1 h 15 v -9 h -15 v -1 h 15 v -9.000005 h -15 v -1 h 15 v -9 h -15 v -1 h 15 v -9 h -15 v -1 h 15 v -9 h -15 v -1 h 15 v -9 h -15 v -1 h 15 v -9 h -15 v -1 h 15 v -9 h -15 v -1 h 15 v -15 h 1 v 15 h 9 v -15 h 1 v 15 h 9 v -15 h 1 v 15 h 9 v -15 h 1 v 15 h 9 v -15 h 1 v 15 h 9 v -15 h 1 v 15 h 9 v -15 h 1 v 15 h 9 v -15 h 1 v 15 h 9 v -15 h 1 v 15 h 4 v 1 h -4 v 9 h 4 v 1 h -4 v 9 h 4 v 1 h -4 v 9 h 4 v 1 h -4 v 9 h 4 v 1 h -4 v 9 h 4 v 1 h -4 v 9 h 4 v 1 h -4 v 9.000005 h 4 v 1 h -4 z m -1,0 v -9 h -9 v 9 z m -10,0 v -9 h -9 v 9 z m -10,0 v -9 h -9 v 9 z m -10,0 v -9 h -9 v 9 z m -10,0 v -9 h -9 v 9 z m -10,0 v -9 h -9 v 9 z m -10,0 v -9 h -9 v 9 z m -10,0 v -9 h -9 v 9 z m -9,-10 h 9 v -9.000005 h -9 z m 10,0 h 9 v -9.000005 h -9 z m 10,0 h 9 v -9.000005 h -9 z m 10,0 h 9 v -9.000005 h -9 z m 10,0 h 9 v -9.000005 h -9 z m 10,0 h 9 v -9.000005 h -9 z m 10,0 h 9 v -9.000005 h -9 z m 10,0 h 9 v -9.000005 h -9 z m 9,-10.000005 v -9 h -9 v 9 z m -10,0 v -9 h -9 v 9 z m -10,0 v -9 h -9 v 9 z m -10,0 v -9 h -9 v 9 z m -10,0 v -9 h -9 v 9 z m -10,0 v -9 h -9 v 9 z m -10,0 v -9 h -9 v 9 z m -10,0 v -9 h -9 v 9 z m -9,-10 h 9 v -9 h -9 z m 10,0 h 9 v -9 h -9 z m 10,0 h 9 v -9 h -9 z m 10,0 h 9 v -9 h -9 z m 10,0 h 9 v -9 h -9 z m 10,0 h 9 v -9 h -9 z m 10,0 h 9 v -9 h -9 z m 10,0 h 9 v -9 h -9 z m 9,-10 v -9 h -9 v 9 z m -10,0 v -9 h -9 v 9 z m -10,0 v -9 h -9 v 9 z m -10,0 v -9 h -9 v 9 z m -10,0 v -9 h -9 v 9 z m -10,0 v -9 h -9 v 9 z m -10,0 v -9 h -9 v 9 z m -10,0 v -9 h -9 v 9 z m -9,-10 h 9 v -9 h -9 z m 10,0 h 9 v -9 h -9 z m 10,0 h 9 v -9 h -9 z m 10,0 h 9 v -9 h -9 z m 10,0 h 9 v -9 h -9 z m 10,0 h 9 v -9 h -9 z m 10,0 h 9 v -9 h -9 z m 10,0 h 9 v -9 h -9 z m 9,-10 v -9 h -9 v 9 z m -10,0 v -9 h -9 v 9 z m -10,0 v -9 h -9 v 9 z m -10,0 v -9 h -9 v 9 z m -10,0 v -9 h -9 v 9 z m -10,0 v -9 h -9 v 9 z m -10,0 v -9 h -9 v 9 z m -10,0 v -9 h -9 v 9 z m -9,-10 h 9 v -9 h -9 z m 10,0 h 9 v -9 h -9 z m 10,0 h 9 v -9 h -9 z m 10,0 h 9 v -9 h -9 z m 10,0 h 9 v -9 h -9 z m 10,0 h 9 v -9 h -9 z m 10,0 h 9 v -9 h -9 z m 10,0 h 9 v -9 h -9 z"
           id="path2"
           inkscape:connector-curvature="0"
           style="opacity:0.5;fill:#004455;fill-rule:evenodd" />
        <path
           style="fill:#00112b;fill-rule:evenodd"
           d="m -74.084746,21.101695 v -5 h -1 v 5 h -5 v 1 h 5 V 116.1017 h 1 V 22.101695 h 94 v -1 z"
           id="path4"
           inkscape:connector-curvature="0" />
      </g>
    </pattern>
    <marker
       inkscape:isstock="true"
       style="overflow:visible;"
       id="Arrow1Lend"
       refX="0.0"
       refY="0.0"
       orient="auto"
       inkscape:stockid="Arrow1Lend">
      <path
         transform="scale(0.8) rotate(180) translate(12.5,0)"
         style="fill-rule:evenodd;stroke:#000000;stroke-width:1.0pt;"
         d="M 0.0,0.0 L 5.0,-5.0 L -12.5,0.0 L 5.0,5.0 L 0.0,0.0 z "
         id="path1818" />
    </marker>
    <marker
       inkscape:isstock="true"
       style="overflow:visible"
       id="Arrow1Lstart"
       refX="0.0"
       refY="0.0"
       orient="auto"
       inkscape:stockid="Arrow1Lstart">
      <path
         transform="scale(0.8) translate(12.5,0)"
         style="fill-rule:evenodd;stroke:#000000;stroke-width:1.0pt"
         d="M 0.0,0.0 L 5.0,-5.0 L -12.5,0.0 L 5.0,5.0 L 0.0,0.0 z "
         id="path1815" />
    </marker>
    <inkscape:path-effect
       fuse_tolerance="0"
       vertical_pattern="false"
       prop_units="false"
       tang_offset="0"
       normal_offset="0"
       spacing="5"
       scale_y_rel="false"
       prop_scale="1.0329666"
       copytype="repeated_stretched"
       pattern="m 237.33536,409.85075 c 0.34484,0 0.6225,0.23727 0.6225,0.53201 v 25.53688 c 0,0.29473 -0.27766,0.53201 -0.6225,0.53201 -0.34487,0 -0.62253,-0.23728 -0.62253,-0.53201 v -25.53688 c 0,-0.29474 0.27766,-0.53201 0.62253,-0.53201 z"
       is_visible="true"
       id="path-effect1112"
       effect="skeletal" />
    <inkscape:path-effect
       fuse_tolerance="0"
       vertical_pattern="false"
       prop_units="false"
       tang_offset="0"
       normal_offset="0"
       spacing="0"
       scale_y_rel="false"
       prop_scale="1"
       copytype="repeated_stretched"
       pattern="m 1098.7988,2232.5508 v 20.2031 240.6211 h 16.7598 v -240.6211 h 136.7852 v -20.2031 z"
       is_visible="true"
       id="path-effect1090"
       effect="skeletal" />
    <inkscape:path-effect
       fuse_tolerance="0"
       vertical_pattern="false"
       prop_units="false"
       tang_offset="0"
       normal_offset="0"
       spacing="0"
       scale_y_rel="false"
       prop_scale="1"
       copytype="repeated_stretched"
       pattern="m 1098.7988,2232.5508 v 20.2031 240.6211 h 16.7598 v -240.6211 h 136.7852 v -20.2031 z"
       is_visible="true"
       id="path-effect1070"
       effect="skeletal" />
    <inkscape:path-effect
       fuse_tolerance="0"
       vertical_pattern="false"
       prop_units="false"
       tang_offset="0"
       normal_offset="0"
       spacing="0"
       scale_y_rel="false"
       prop_scale="1"
       copytype="repeated_stretched"
       pattern="m 1098.7988,2232.5508 v 20.2031 240.6211 h 16.7598 v -240.6211 h 136.7852 v -20.2031 z"
       is_visible="true"
       id="path-effect1024"
       effect="skeletal" />
    <inkscape:path-effect
       fuse_tolerance="0"
       vertical_pattern="false"
       prop_units="false"
       tang_offset="0"
       normal_offset="0"
       spacing="0"
       scale_y_rel="false"
       prop_scale="1"
       copytype="repeated_stretched"
       pattern="M 0,0 H 1"
       is_visible="true"
       id="path-effect1005"
       effect="skeletal" />
    <inkscape:path-effect
       fuse_tolerance="0"
       vertical_pattern="false"
       prop_units="false"
       tang_offset="0"
       normal_offset="0"
       spacing="1"
       scale_y_rel="false"
       prop_scale="1"
       copytype="repeated_stretched"
       pattern="m -1157.4361,599.36425 v 17.80552 h 18.5179 v 46.65025 h -27.4203 v 17.80539 h 27.4203 v 1.3e-4 h 17.8056 v -1.3e-4 h 27.4203 v -17.80539 h -27.4203 v -46.65025 h 18.5175 v -17.80552 z"
       is_visible="true"
       id="path-effect5634"
       effect="skeletal" />
    <inkscape:path-effect
       fuse_tolerance="0"
       vertical_pattern="false"
       prop_units="false"
       tang_offset="0"
       normal_offset="0"
       spacing="0"
       scale_y_rel="false"
       prop_scale="1"
       copytype="repeated_stretched"
       pattern="m -1404.1425,235.59635 v 38.63772 h 60.0447 l -2.8559,158.35406 h -91.1269 v 49.58361 h 91.1269 64.323 91.125 v -49.58361 h -91.125 l -2.8559,-158.35406 h 60.0428 v -38.63772 h -60.7399 -57.217 z"
       is_visible="true"
       id="path-effect5609"
       effect="skeletal" />
    <inkscape:path-effect
       fuse_tolerance="0"
       vertical_pattern="false"
       prop_units="false"
       tang_offset="0"
       normal_offset="0"
       spacing="0"
       scale_y_rel="false"
       prop_scale="1"
       copytype="single_stretched"
       pattern="M 0,0 H 1"
       is_visible="true"
       id="path-effect5590"
       effect="skeletal" />
    <inkscape:path-effect
       fuse_tolerance="0"
       vertical_pattern="false"
       prop_units="false"
       tang_offset="0"
       normal_offset="0"
       spacing="0"
       scale_y_rel="false"
       prop_scale="0.47389895"
       copytype="repeated_stretched"
       pattern="m -1398.8049,282.03791 v 24.16794 h -13.7688 v 24.16794 h 13.7688 13.7686 v -24.16794 h 13.7688 v -24.16794 h -13.7688 z"
       is_visible="true"
       id="path-effect5558"
       effect="skeletal" />
    <inkscape:path-effect
       fuse_tolerance="0"
       vertical_pattern="false"
       prop_units="false"
       tang_offset="0"
       normal_offset="0"
       spacing="0"
       scale_y_rel="false"
       prop_scale="1"
       copytype="single_stretched"
       pattern="M 0,0 H 1"
       is_visible="true"
       id="path-effect5542"
       effect="skeletal" />
    <inkscape:path-effect
       fuse_tolerance="0"
       vertical_pattern="false"
       prop_units="false"
       tang_offset="0"
       normal_offset="0"
       spacing="0"
       scale_y_rel="false"
       prop_scale="1"
       copytype="single_stretched"
       pattern="M 0,0 H 1"
       is_visible="true"
       id="path-effect5530"
       effect="skeletal" />
    <inkscape:path-effect
       fuse_tolerance="0"
       vertical_pattern="false"
       prop_units="false"
       tang_offset="0"
       normal_offset="0"
       spacing="0"
       scale_y_rel="false"
       prop_scale="1.02"
       copytype="repeated_stretched"
       pattern="M 0,0 H 1"
       is_visible="true"
       id="path-effect5528"
       effect="skeletal" />
    <inkscape:path-effect
       fuse_tolerance="0"
       vertical_pattern="false"
       prop_units="false"
       tang_offset="0"
       normal_offset="0"
       spacing="0"
       scale_y_rel="false"
       prop_scale="1"
       copytype="repeated_stretched"
       pattern="m 59.266667,14.816667 h 1"
       is_visible="true"
       id="path-effect5475"
       effect="skeletal" />
    <inkscape:path-effect
       fuse_tolerance="0"
       vertical_pattern="false"
       prop_units="false"
       tang_offset="0"
       normal_offset="0"
       spacing="0"
       scale_y_rel="false"
       prop_scale="1"
       copytype="repeated_stretched"
       pattern="M 0,0 H 1"
       is_visible="true"
       id="path-effect1735"
       effect="skeletal" />
    <radialGradient
       gradientUnits="userSpaceOnUse"
       gradientTransform="matrix(-0.26156708,0.03976687,-0.026035,-0.17134416,433.50951,363.9597)"
       r="979.95471"
       cy="149.7178"
       cx="427.0137"
       id="SVGID_1_">
      <stop
         id="stop950"
         style="stop-color:#26184D"
         offset="0.3462" />
      <stop
         id="stop952"
         style="stop-color:#26174D"
         offset="0.6454" />
      <stop
         id="stop954"
         style="stop-color:#24154A"
         offset="0.7692" />
      <stop
         id="stop956"
         style="stop-color:#201045"
         offset="0.8606" />
      <stop
         id="stop958"
         style="stop-color:#1A083D"
         offset="0.9355" />
      <stop
         id="stop960"
         style="stop-color:#120033"
         offset="1" />
    </radialGradient>
    <radialGradient
       gradientTransform="matrix(-0.26458333,0,0,-0.26458333,430.89299,394.89597)"
       gradientUnits="userSpaceOnUse"
       r="775.13348"
       cy="124.1641"
       cx="642.79828"
       id="SVGID_2_">
      <stop
         id="stop967"
         style="stop-color:#26184D"
         offset="0.3462" />
      <stop
         id="stop969"
         style="stop-color:#26174D"
         offset="0.6454" />
      <stop
         id="stop971"
         style="stop-color:#24154A"
         offset="0.7692" />
      <stop
         id="stop973"
         style="stop-color:#201045"
         offset="0.8606" />
      <stop
         id="stop975"
         style="stop-color:#1A083D"
         offset="0.9355" />
      <stop
         id="stop977"
         style="stop-color:#120033"
         offset="1" />
    </radialGradient>
    <radialGradient
       gradientUnits="userSpaceOnUse"
       gradientTransform="matrix(-0.26156708,0.03976687,-0.026035,-0.17134416,444.54089,322.44647)"
       r="705.76141"
       cy="577.88867"
       cx="467.11621"
       id="SVGID_3_">
      <stop
         id="stop982"
         style="stop-color:#FFFCDD"
         offset="0.4279" />
      <stop
         id="stop984"
         style="stop-color:#FFF2D1"
         offset="0.481" />
      <stop
         id="stop986"
         style="stop-color:#FFDDB6"
         offset="0.5701" />
      <stop
         id="stop988"
         style="stop-color:#FBBB8E"
         offset="0.6844" />
      <stop
         id="stop990"
         style="stop-color:#F68F5F"
         offset="0.8194" />
      <stop
         id="stop992"
         style="stop-color:#F0542A"
         offset="0.9702" />
      <stop
         id="stop994"
         style="stop-color:#EF4423"
         offset="1" />
    </radialGradient>
    <radialGradient
       gradientTransform="matrix(-0.26458333,0,0,-0.26458333,-59.720105,394.89597)"
       gradientUnits="userSpaceOnUse"
       r="836.31421"
       cy="703.13483"
       cx="722.94922"
       id="SVGID_4_">
      <stop
         id="stop1003"
         style="stop-color:#FFFCDD"
         offset="0" />
      <stop
         id="stop1005"
         style="stop-color:#CDC6BE"
         offset="0.1671" />
      <stop
         id="stop1007"
         style="stop-color:#766B84"
         offset="0.5396" />
      <stop
         id="stop1009"
         style="stop-color:#26184D"
         offset="1" />
    </radialGradient>
    <radialGradient
       gradientUnits="userSpaceOnUse"
       gradientTransform="matrix(-0.26458333,0,0,-0.16557625,430.89299,363.70781)"
       r="597.39313"
       cy="315.04929"
       cx="953.93848"
       id="SVGID_5_">
      <stop
         id="stop1018"
         style="stop-color:#FFFCDD"
         offset="0" />
      <stop
         id="stop1020"
         style="stop-color:#CDC6BE"
         offset="0.0598" />
      <stop
         id="stop1022"
         style="stop-color:#9A909D"
         offset="0.1523" />
      <stop
         id="stop1024"
         style="stop-color:#756983"
         offset="0.25" />
      <stop
         id="stop1026"
         style="stop-color:#5A4F70"
         offset="0.3512" />
      <stop
         id="stop1028"
         style="stop-color:#463B62"
         offset="0.4567" />
      <stop
         id="stop1030"
         style="stop-color:#382B59"
         offset="0.568" />
      <stop
         id="stop1032"
         style="stop-color:#2E2152"
         offset="0.6877" />
      <stop
         id="stop1034"
         style="stop-color:#281A4E"
         offset="0.8218" />
      <stop
         id="stop1036"
         style="stop-color:#26184D"
         offset="1" />
    </radialGradient>
    <radialGradient
       gradientTransform="matrix(-0.26458333,0,0,-0.26458333,430.89299,394.89597)"
       gradientUnits="userSpaceOnUse"
       r="464.50729"
       cy="304.1553"
       cx="346.35449"
       id="SVGID_6_">
      <stop
         id="stop1049"
         style="stop-color:#FFFCDD"
         offset="0" />
      <stop
         id="stop1051"
         style="stop-color:#CDC6BE"
         offset="0.0598" />
      <stop
         id="stop1053"
         style="stop-color:#9A909D"
         offset="0.1523" />
      <stop
         id="stop1055"
         style="stop-color:#756983"
         offset="0.25" />
      <stop
         id="stop1057"
         style="stop-color:#5A4F70"
         offset="0.3512" />
      <stop
         id="stop1059"
         style="stop-color:#463B62"
         offset="0.4567" />
      <stop
         id="stop1061"
         style="stop-color:#382B59"
         offset="0.568" />
      <stop
         id="stop1063"
         style="stop-color:#2E2152"
         offset="0.6877" />
      <stop
         id="stop1065"
         style="stop-color:#281A4E"
         offset="0.8218" />
      <stop
         id="stop1067"
         style="stop-color:#26184D"
         offset="1" />
    </radialGradient>
  </defs>
  <sodipodi:namedview
     pagecolor="#ffffff"
     bordercolor="#666666"
     borderopacity="1"
     objecttolerance="10"
     gridtolerance="10"
     guidetolerance="10"
     inkscape:pageopacity="0"
     inkscape:pageshadow="2"
     inkscape:window-width="1366"
     inkscape:window-height="745"
     id="namedview12"
     showgrid="false"
     showborder="false"
     inkscape:zoom="0.01"
     inkscape:cx="-76217.762"
     inkscape:cy="3722.769"
     inkscape:window-x="-8"
     inkscape:window-y="-8"
     inkscape:window-maximized="1"
     inkscape:current-layer="svg10" />
  <rect
     style="opacity:0.83200001;fill:#2ca02c;fill-opacity:1;stroke:none;stroke-width:13.21005344;stroke-linecap:round;stroke-linejoin:round;stroke-miterlimit:4;stroke-dasharray:none;stroke-dashoffset:0;stroke-opacity:1;paint-order:fill markers stroke"
     id="rect1555"
     width="11379.718"
     height="11379.718"
     x="-53565.258"
     y="-11307.276"
     inkscape:export-xdpi="96"
     inkscape:export-ydpi="96" />
  <g
     id="g4367"
     transform="matrix(1.7962125,0,0,1.7962125,72343.247,11832.145)"
     style="fill:#220055">
    <path
       inkscape:export-ydpi="96"
       inkscape:export-xdpi="96"
       inkscape:connector-curvature="0"
       id="path2162"
       d="m -65216.116,-12620.459 c -28.671,0 -51.753,23.082 -51.753,51.754 v 306.996 c 0,28.672 23.082,51.753 51.753,51.753 h 306.995 c 28.672,0 51.755,-23.081 51.755,-51.753 v -306.996 c 0,-28.672 -23.083,-51.754 -51.755,-51.754 z m 136.364,171.076 h 99.824 c 10.364,0 19.273,1.545 26.728,4.637 7.455,2.909 13.546,6.909 18.274,12 4.909,4.909 8.455,10.728 10.637,17.455 2.364,6.728 3.545,13.728 3.545,21.001 0,5.819 -0.728,11.637 -2.182,17.456 -1.454,5.637 -3.727,11 -6.818,16.091 -3.092,4.91 -7.092,9.274 -12.001,13.092 -4.909,3.818 -10.909,6.728 -18.001,8.727 l 42.821,73.64 h -35.729 l -42.003,-71.185 h -48.002 c -3.091,0 -4.636,1.546 -4.636,4.637 v 66.548 h -32.184 v -72.821 c 0,-10.364 2.273,-17.819 6.819,-22.365 4.546,-4.546 11.91,-6.819 22.092,-6.819 h 71.731 c 4.545,0 8.454,-0.726 11.727,-2.181 3.273,-1.455 5.91,-3.364 7.91,-5.728 2,-2.364 3.455,-5.091 4.364,-8.182 1.091,-3.091 1.636,-6.273 1.636,-9.546 0,-6.546 -2.091,-12.183 -6.273,-16.91 -4,-4.909 -10.455,-7.364 -19.364,-7.364 h -100.915 z"
       style="opacity:1;fill:#220055;fill-opacity:1;stroke:none;stroke-width:1.98887026;stroke-linecap:round;stroke-linejoin:miter;stroke-miterlimit:4;stroke-dasharray:none;stroke-dashoffset:0;stroke-opacity:1;paint-order:fill markers stroke" />
    <text
       id="text2166"
       y="-12407.317"
       x="-64820.48"
       style="font-style:normal;font-variant:normal;font-weight:500;font-stretch:normal;font-size:239.40397644px;line-height:1.25;font-family:Roboto;-inkscape-font-specification:'Roboto, Medium';font-variant-ligatures:normal;font-variant-caps:normal;font-variant-numeric:normal;font-feature-settings:normal;text-align:start;letter-spacing:0px;word-spacing:0px;writing-mode:lr-tb;text-anchor:start;fill:#220055;fill-opacity:1;stroke:none;stroke-width:3.41803837"
       xml:space="preserve"><tspan
         style="fill:#220055;stroke-width:3.41803837"
         y="-12407.317"
         x="-64820.48"
         id="tspan2164"
         sodipodi:role="line">Rapport</tspan></text>
    <text
       id="text2170"
       y="-12254.092"
       x="-64807.609"
       style="font-style:normal;font-variant:normal;font-weight:500;font-stretch:normal;font-size:122.58716583px;line-height:1.25;font-family:Roboto;-inkscape-font-specification:'Roboto, Medium';font-variant-ligatures:normal;font-variant-caps:normal;font-variant-numeric:normal;font-feature-settings:normal;text-align:start;letter-spacing:0px;word-spacing:0px;writing-mode:lr-tb;text-anchor:start;fill:#220055;fill-opacity:1;stroke:none;stroke-width:1.75021172"
       xml:space="preserve"><tspan
         style="fill:#220055;stroke-width:1.75021172"
         y="-12254.092"
         x="-64807.609"
         id="tspan2168"
         sodipodi:role="line">Success ahead</tspan></text>
  </g>
  <g
     transform="matrix(-0.35341965,0,0,-0.35341965,-60068.764,-10919.095)"
     style="fill:#ffffff"
     id="g9183">
    <g
       id="g9187"
       transform="translate(1135.7927,1079.0031)">
      <path
         inkscape:connector-curvature="0"
         id="path9179"
         d="m -28040.916,-11054.284 v 2664.2888 h 2065.602 c 141.688,2324.43 -1284.577,2577.1777 -1284.577,2577.1777 l 271.034,543.9102 c 1787.253,-478.893 1614.41,-3075.362 1611.225,-3121.0879 h 1.005 v -2664.2888 z"
         style="opacity:1;fill:#ffffff;fill-opacity:1;stroke:none;stroke-width:8.37305069;stroke-linecap:round;stroke-linejoin:round;stroke-miterlimit:4;stroke-dasharray:none;stroke-dashoffset:0;stroke-opacity:1;paint-order:fill markers stroke" />
      <path
         style="opacity:1;fill:#ffffff;fill-opacity:1;stroke:none;stroke-width:8.37305069;stroke-linecap:round;stroke-linejoin:round;stroke-miterlimit:4;stroke-dasharray:none;stroke-dashoffset:0;stroke-opacity:1;paint-order:fill markers stroke"
         d="m -24940.916,-11054.284 v 2664.2888 h 2065.602 c 141.688,2324.43 -1284.577,2577.1777 -1284.577,2577.1777 l 271.034,543.9102 c 1787.253,-478.893 1614.41,-3075.362 1611.225,-3121.0879 h 1.005 v -2664.2888 z"
         id="path9181"
         inkscape:connector-curvature="0" />
    </g>
  </g>
  <text
     xml:space="preserve"
     style="font-style:normal;font-variant:normal;font-weight:500;font-stretch:normal;font-size:1045.70288086px;line-height:1.25;font-family:Roboto;-inkscape-font-specification:'Roboto, Medium';font-variant-ligatures:normal;font-variant-caps:normal;font-variant-numeric:normal;font-feature-settings:normal;text-align:start;letter-spacing:0px;word-spacing:0px;writing-mode:lr-tb;text-anchor:start;fill:#220055;fill-opacity:1;stroke:none;stroke-width:14.92979431"
     x="-51685.785"
     y="-6748.1738"
     id="text9195"><tspan
       sodipodi:role="line"
       id="tspan9193"
       x="-51685.785"
       y="-6748.1738"
       style="fill:#220055;stroke-width:14.92979431">The secret of </tspan><tspan
       sodipodi:role="line"
       x="-51685.785"
       y="-5441.0454"
       style="fill:#220055;stroke-width:14.92979431"
       id="tspan9197">getting ahead is </tspan><tspan
       sodipodi:role="line"
       x="-51685.785"
       y="-4133.9165"
       style="fill:#220055;stroke-width:14.92979431"
       id="tspan9203">getting started.</tspan></text>
  <g
     id="g9211"
     style="fill:#ffffff"
     transform="matrix(0.35341965,0,0,0.35341965,-35682.018,-315.74178)">
    <g
       transform="translate(1135.7927,1079.0031)"
       id="g9209">
      <path
         style="opacity:1;fill:#ffffff;fill-opacity:1;stroke:none;stroke-width:8.37305069;stroke-linecap:round;stroke-linejoin:round;stroke-miterlimit:4;stroke-dasharray:none;stroke-dashoffset:0;stroke-opacity:1;paint-order:fill markers stroke"
         d="m -28040.916,-11054.284 v 2664.2888 h 2065.602 c 141.688,2324.43 -1284.577,2577.1777 -1284.577,2577.1777 l 271.034,543.9102 c 1787.253,-478.893 1614.41,-3075.362 1611.225,-3121.0879 h 1.005 v -2664.2888 z"
         id="path9205"
         inkscape:connector-curvature="0" />
      <path
         inkscape:connector-curvature="0"
         id="path9207"
         d="m -24940.916,-11054.284 v 2664.2888 h 2065.602 c 141.688,2324.43 -1284.577,2577.1777 -1284.577,2577.1777 l 271.034,543.9102 c 1787.253,-478.893 1614.41,-3075.362 1611.225,-3121.0879 h 1.005 v -2664.2888 z"
         style="opacity:1;fill:#ffffff;fill-opacity:1;stroke:none;stroke-width:8.37305069;stroke-linecap:round;stroke-linejoin:round;stroke-miterlimit:4;stroke-dasharray:none;stroke-dashoffset:0;stroke-opacity:1;paint-order:fill markers stroke" />
    </g>
  </g>
  <text
     id="text9215"
     y="-1801.4739"
     x="-51701.566"
     style="font-style:normal;font-variant:normal;font-weight:500;font-stretch:normal;font-size:505.59436035px;line-height:1.25;font-family:Roboto;-inkscape-font-specification:'Roboto, Medium';font-variant-ligatures:normal;font-variant-caps:normal;font-variant-numeric:normal;font-feature-settings:normal;text-align:start;letter-spacing:34.60028839px;word-spacing:0px;writing-mode:lr-tb;text-anchor:start;fill:#220055;fill-opacity:1;stroke:none;stroke-width:7.21851492"
     xml:space="preserve"><tspan
       style="letter-spacing:34.60028839px;fill:#220055;fill-opacity:1;stroke-width:7.21851492"
       y="-1801.4739"
       x="-51701.566"
       id="tspan9213"
       sodipodi:role="line">– Mark Twain</tspan></text>
  <g
     id="g9267"
     transform="matrix(1.6838768,0,0,1.6838768,78204.823,10014.617)"
     style="fill:#220055;fill-opacity:1">
    <path
       style="fill:#220055;fill-opacity:1;stroke-width:1.26862168"
       inkscape:connector-curvature="0"
       d="m -77791.878,-6438.3676 h -96.101 c -32.635,0 -59.186,26.5523 -59.186,59.1875 v 96.1007 c 0,32.6365 26.551,59.1875 59.186,59.1875 h 96.101 c 32.638,0 59.189,-26.5522 59.189,-59.1875 v -96.1007 c 0,-32.6352 -26.551,-59.1875 -59.189,-59.1875 z m 40.161,155.2882 c 0,22.1438 -18.016,40.1582 -40.16,40.1582 h -96.102 c -22.142,0 -40.157,-18.0144 -40.157,-40.1582 v -96.1007 c 0,-22.1425 18.015,-40.1582 40.157,-40.1582 h 96.101 c 22.144,0 40.159,18.0157 40.159,40.1582 v 96.1007 z"
       id="path9255" />
    <path
       style="fill:#220055;fill-opacity:1;stroke-width:1.26862168"
       inkscape:connector-curvature="0"
       d="m -77839.927,-6386.3922 c -30.474,0 -55.265,24.7914 -55.265,55.265 0,30.4723 24.791,55.2624 55.265,55.2624 30.473,0 55.265,-24.7901 55.265,-55.2624 0,-30.4736 -24.792,-55.265 -55.265,-55.265 z m 0,91.4968 c -19.98,0 -36.236,-16.2535 -36.236,-36.2331 0,-19.9808 16.255,-36.2356 36.236,-36.2356 19.981,0 36.236,16.2548 36.236,36.2356 0,19.9796 -16.257,36.2331 -36.236,36.2331 z"
       id="path9257" />
    <path
       style="fill:#220055;fill-opacity:1;stroke-width:1.26862168"
       inkscape:connector-curvature="0"
       d="m -77782.344,-6402.5278 c -3.667,0 -7.268,1.4843 -9.858,4.085 -2.602,2.588 -4.097,6.1909 -4.097,9.8699 0,3.6676 1.497,7.2692 4.097,9.8698 2.588,2.588 6.191,4.085 9.858,4.085 3.679,0 7.269,-1.497 9.869,-4.085 2.601,-2.6006 4.085,-6.2035 4.085,-9.8698 0,-3.679 -1.484,-7.2819 -4.085,-9.8699 -2.588,-2.6007 -6.19,-4.085 -9.869,-4.085 z"
       id="path9259" />
    <path
       style="fill:#220055;fill-opacity:1;stroke-width:3.40332794"
       inkscape:connector-curvature="0"
       d="m -77459.51,-6434.4752 h -183.868 c -6.296,0 -11.408,5.1016 -11.408,11.408 v 183.8682 c 0,6.3063 5.112,11.4147 11.408,11.4147 h 98.989 v -80.0429 h -26.934 v -31.1983 h 26.934 v -23.0065 c 0,-26.6923 16.299,-41.2347 40.115,-41.2347 11.418,0 21.21,0.8543 24.065,1.2252 v 27.9005 l -16.52,0.01 c -12.949,0 -15.447,6.1566 -15.447,15.1857 v 19.9128 h 30.895 l -4.04,31.1949 h -26.859 v 80.0463 h 52.667 c 6.303,0 11.418,-5.1152 11.418,-11.4045 v -183.875 c 0,-6.2996 -5.112,-11.4012 -11.415,-11.4012 z"
       id="path9261" />
    <text
       id="text9265"
       y="-6274.0054"
       x="-77344.812"
       style="font-style:normal;font-variant:normal;font-weight:500;font-stretch:normal;font-size:233.56790161px;line-height:1.25;font-family:Roboto;-inkscape-font-specification:'Roboto, Medium';font-variant-ligatures:normal;font-variant-caps:normal;font-variant-numeric:normal;font-feature-settings:normal;text-align:start;letter-spacing:0px;word-spacing:0px;writing-mode:lr-tb;text-anchor:start;fill:#220055;fill-opacity:1;stroke:none;stroke-width:3.33471537"
       xml:space="preserve"><tspan
         style="font-style:normal;font-variant:normal;font-weight:normal;font-stretch:normal;font-size:233.57029724px;font-family:monospace;-inkscape-font-specification:'monospace, Normal';font-variant-ligatures:normal;font-variant-caps:normal;font-variant-numeric:normal;font-feature-settings:normal;text-align:start;writing-mode:lr-tb;text-anchor:start;fill:#220055;fill-opacity:1;stroke-width:3.33471537"
         y="-6274.0054"
         x="-77344.812"
         id="tspan9263"
         sodipodi:role="line">teamrapport</tspan></text>
  </g>
</svg>
