<?xml version="1.0" encoding="UTF-8" standalone="no"?>
<!-- Created with Inkscape (http://www.inkscape.org/) -->

<svg
   xmlns:dc="http://purl.org/dc/elements/1.1/"
   xmlns:cc="http://creativecommons.org/ns#"
   xmlns:rdf="http://www.w3.org/1999/02/22-rdf-syntax-ns#"
   xmlns:svg="http://www.w3.org/2000/svg"
   xmlns="http://www.w3.org/2000/svg"
   xmlns:sodipodi="http://sodipodi.sourceforge.net/DTD/sodipodi-0.dtd"
   xmlns:inkscape="http://www.inkscape.org/namespaces/inkscape"
   width="210mm"
   height="297mm"
   viewBox="0 0 210 297"
   version="1.1"
   id="svg8"
   inkscape:export-filename="C:\Users\lenovo\Desktop\Rapport assets\Rapport_website_logo_light.png"
   inkscape:export-xdpi="96"
   inkscape:export-ydpi="96"
   inkscape:version="0.92.3 (2405546, 2018-03-11)"
   sodipodi:docname="Rapport_logo.svg">
  <defs
     id="defs2" />
  <sodipodi:namedview
     id="base"
     pagecolor="#ffffff"
     bordercolor="#666666"
     borderopacity="1.0"
     inkscape:pageopacity="0.0"
     inkscape:pageshadow="2"
     inkscape:zoom="0.022097087"
     inkscape:cx="8881.6767"
     inkscape:cy="-1207.9836"
     inkscape:document-units="mm"
     inkscape:current-layer="layer1"
     showgrid="false"
     inkscape:window-width="1366"
     inkscape:window-height="745"
     inkscape:window-x="-8"
     inkscape:window-y="-8"
     inkscape:window-maximized="1" />
  <metadata
     id="metadata5">
    <rdf:RDF>
      <cc:Work
         rdf:about="">
        <dc:format>image/svg+xml</dc:format>
        <dc:type
           rdf:resource="http://purl.org/dc/dcmitype/StillImage" />
        <dc:title></dc:title>
      </cc:Work>
    </rdf:RDF>
  </metadata>
  <g
     inkscape:label="Layer 1"
     inkscape:groupmode="layer"
     id="layer1">
    <text
       xml:space="preserve"
       style="font-style:normal;font-variant:normal;font-weight:500;font-stretch:normal;font-size:3079.58203125px;line-height:1.25;font-family:Roboto;-inkscape-font-specification:'Roboto, Medium';font-variant-ligatures:normal;font-variant-caps:normal;font-variant-numeric:normal;font-feature-settings:normal;text-align:start;letter-spacing:0px;word-spacing:0px;writing-mode:lr-tb;text-anchor:start;fill:#000000;fill-opacity:1;stroke:none;stroke-width:43.96806717"
       x="992.73663"
       y="967.98016"
       id="text826"><tspan
         sodipodi:role="line"
         id="tspan824"
         x="992.73663"
         y="3662.6145"
         style="stroke-width:43.96806717" /></text>
    <rect
       style="opacity:1;fill:#ffffff;fill-opacity:1;stroke:none;stroke-width:2.84344864;stroke-linecap:round;stroke-linejoin:miter;stroke-miterlimit:4;stroke-dasharray:none;stroke-dashoffset:0;stroke-opacity:1;paint-order:fill markers stroke"
       id="rect1797"
       width="2753.7473"
       height="2753.7473"
       x="2125.426"
       y="-1660.5968"
       inkscape:export-xdpi="96"
       inkscape:export-ydpi="96" />
    <path
       style="opacity:1;fill:#1a1a1a;fill-opacity:1;stroke:none;stroke-width:7.34480476;stroke-linecap:round;stroke-linejoin:miter;stroke-miterlimit:4;stroke-dasharray:none;stroke-dashoffset:0;stroke-opacity:1;paint-order:fill markers stroke"
       d="m 2935.4387,-1041.707 c -105.8822,0 -191.1227,85.24059 -191.1227,191.12279 V 283.13798 c 0,105.88218 85.2405,191.12273 191.1227,191.12273 h 1133.7208 c 105.8821,0 191.1242,-85.24055 191.1242,-191.12273 V -850.58421 c 0,-105.8822 -85.2421,-191.12279 -191.1242,-191.12279 z m 503.5882,631.77379 h 368.6418 c 38.2742,0 71.1767,5.7074 98.7073,17.1225 27.5306,10.7437 50.0248,25.5156 67.4832,44.31702 18.1299,18.12991 31.2241,39.61745 39.2818,64.46215 8.7292,24.84469 13.093,50.69597 13.093,77.5551 0,21.48731 -2.6859,42.97484 -8.0578,64.46214 -5.3718,20.81582 -13.7652,40.6241 -25.1803,59.425485 -11.4152,18.12991 -26.1871,34.245564 -44.317,48.346604 -18.1299,14.10104 -40.2886,24.8448125 -66.4762,32.2310725 L 4040.3354,269.93742 H 3908.39 L 3753.2784,7.0536715 h -177.2709 c -11.4151,0 -17.1225,5.7074475 -17.1225,17.1225775 V 269.93742 H 3440.034 V 1.0114215 c 0,-38.2742625 8.3933,-65.8048065 25.1803,-82.5917565 16.7869,-16.78696 43.9819,-25.181775 81.5847,-25.181775 h 264.8978 c 16.787,0 31.2233,-2.68594 43.31,-8.05776 12.0866,-5.37183 21.8236,-12.42153 29.21,-21.15075 7.3862,-8.72921 12.7581,-18.80185 16.1155,-30.21698 4.0288,-11.41513 6.0437,-23.16559 6.0437,-35.25219 0,-24.17322 -7.7223,-44.98962 -23.1663,-62.44805 -14.7725,-18.12992 -38.6105,-27.19443 -71.5129,-27.19443 h -372.6699 z"
       id="rect832"
       inkscape:connector-curvature="0"
       inkscape:export-xdpi="96"
       inkscape:export-ydpi="96" />
  </g>
</svg>
