<?xml version="1.0" encoding="UTF-8" standalone="no"?>
<!-- Created with Inkscape (http://www.inkscape.org/) -->

<svg
   xmlns:dc="http://purl.org/dc/elements/1.1/"
   xmlns:cc="http://creativecommons.org/ns#"
   xmlns:rdf="http://www.w3.org/1999/02/22-rdf-syntax-ns#"
   xmlns:svg="http://www.w3.org/2000/svg"
   xmlns="http://www.w3.org/2000/svg"
   xmlns:sodipodi="http://sodipodi.sourceforge.net/DTD/sodipodi-0.dtd"
   xmlns:inkscape="http://www.inkscape.org/namespaces/inkscape"
   width="210mm"
   height="297mm"
   viewBox="0 0 210 297"
   version="1.1"
   id="svg8"
   inkscape:export-filename="C:\Users\lenovo\Desktop\Rapport assets\Rapport_website_logo_light.png"
   inkscape:export-xdpi="96"
   inkscape:export-ydpi="96"
   inkscape:version="0.92.3 (2405546, 2018-03-11)"
   sodipodi:docname="Rapport_logo.svg">
  <defs
     id="defs2" />
  <sodipodi:namedview
     id="base"
     pagecolor="#ffffff"
     bordercolor="#666666"
     borderopacity="1.0"
     inkscape:pageopacity="0.0"
     inkscape:pageshadow="2"
     inkscape:zoom="0.16"
     inkscape:cx="1266.3785"
     inkscape:cy="1035.849"
     inkscape:document-units="mm"
     inkscape:current-layer="layer1"
     showgrid="false"
     inkscape:window-width="1366"
     inkscape:window-height="745"
     inkscape:window-x="-8"
     inkscape:window-y="-8"
     inkscape:window-maximized="1" />
  <metadata
     id="metadata5">
    <rdf:RDF>
      <cc:Work
         rdf:about="">
        <dc:format>image/svg+xml</dc:format>
        <dc:type
           rdf:resource="http://purl.org/dc/dcmitype/StillImage" />
        <dc:title />
      </cc:Work>
    </rdf:RDF>
  </metadata>
  <g
     inkscape:label="Layer 1"
     inkscape:groupmode="layer"
     id="layer1">
    <text
       xml:space="preserve"
       style="font-style:normal;font-variant:normal;font-weight:500;font-stretch:normal;font-size:3079.58203125px;line-height:1.25;font-family:Roboto;-inkscape-font-specification:'Roboto, Medium';font-variant-ligatures:normal;font-variant-caps:normal;font-variant-numeric:normal;font-feature-settings:normal;text-align:start;letter-spacing:0px;word-spacing:0px;writing-mode:lr-tb;text-anchor:start;fill:#000000;fill-opacity:1;stroke:none;stroke-width:43.96806717"
       x="992.73663"
       y="967.98016"
       id="text826"><tspan
         sodipodi:role="line"
         id="tspan824"
         x="992.73663"
         y="3662.6145"
         style="stroke-width:43.96806717" /></text>
    <path
       style="opacity:1;fill:#0088aa;fill-opacity:1;stroke:none;stroke-width:0.39392307;stroke-linecap:round;stroke-linejoin:miter;stroke-miterlimit:4;stroke-dasharray:none;stroke-dashoffset:0;stroke-opacity:1;paint-order:fill markers stroke"
       d="m 66.715018,63.990023 c -5.678753,0 -10.250464,4.571692 -10.250464,10.250464 v 60.804793 c 0,5.67877 4.571711,10.25047 10.250464,10.25047 h 60.804722 c 5.67878,0 10.25056,-4.5717 10.25056,-10.25047 V 74.240487 c 0,-5.678772 -4.57178,-10.250464 -10.25056,-10.250464 z m 27.008889,33.883853 h 19.771343 c 2.05274,0 3.81738,0.306097 5.29394,0.918327 1.47653,0.576215 2.68298,1.368467 3.61934,2.376847 0.97235,0.97235 1.67462,2.1248 2.10678,3.45729 0.46816,1.3325 0.7022,2.71897 0.7022,4.15952 0,1.1524 -0.14396,2.30486 -0.43216,3.45729 -0.28808,1.11641 -0.73824,2.17878 -1.35047,3.18715 -0.61226,0.97236 -1.40451,1.83668 -2.37686,2.59297 -0.97234,0.75627 -2.1608,1.33248 -3.56532,1.72865 l 8.48112,14.58539 h -7.0766 l -8.31909,-14.09922 h -9.50755 c -0.61223,0 -0.91833,0.3061 -0.91833,0.91833 v 13.18089 h -6.374316 v -14.42329 c 0,-2.05276 0.450152,-3.52929 1.350474,-4.42964 0.900342,-0.90033 2.358871,-1.35056 4.375625,-1.35056 h 14.207227 c 0.90037,0 1.67463,-0.14396 2.32284,-0.43216 0.64825,-0.28811 1.17048,-0.66621 1.56664,-1.13439 0.39612,-0.46816 0.68425,-1.00839 0.86433,-1.62061 0.21607,-0.61223 0.32412,-1.24244 0.32412,-1.89069 0,-1.29647 -0.41417,-2.41292 -1.24248,-3.34926 -0.79229,-0.97236 -2.0708,-1.45853 -3.83545,-1.45853 H 93.723907 Z"
       id="rect832"
       inkscape:connector-curvature="0"
       inkscape:export-xdpi="96"
       inkscape:export-ydpi="96" />
  </g>
</svg>
